<svg width="22" height="22" viewBox="0 0 22 22" fill="none" xmlns="http://www.w3.org/2000/svg">
<path d="M15.0759 2.59339C16.173 2.59655 17.2242 3.01731 18 3.7638C18.7757 4.51029 19.213 5.52183 19.2162 6.57752V14.5449C19.213 15.6006 18.7757 16.6122 18 17.3586C17.2242 18.1051 16.173 18.5259 15.0759 18.529H6.79618C5.69911 18.5259 4.6479 18.1051 3.87215 17.3586C3.0964 16.6122 2.65914 15.6006 2.65586 14.5449V6.57752C2.65914 5.52183 3.0964 4.51029 3.87215 3.7638C4.6479 3.01731 5.69911 2.59655 6.79618 2.59339H15.0759ZM15.0759 1H6.79618C3.60821 1 1 3.50982 1 6.57752V14.5449C1 17.6126 3.60821 20.1224 6.79618 20.1224H15.0759C18.2639 20.1224 20.8721 17.6126 20.8721 14.5449V6.57752C20.8721 3.50982 18.2639 1 15.0759 1Z" fill="#0B0B0B"/>
<path d="M16.3177 6.57768C16.072 6.57768 15.8319 6.50759 15.6277 6.37626C15.4234 6.24494 15.2642 6.05828 15.1702 5.8399C15.0762 5.62151 15.0516 5.3812 15.0995 5.14937C15.1475 4.91753 15.2658 4.70458 15.4395 4.53743C15.6131 4.37029 15.8345 4.25646 16.0754 4.21034C16.3163 4.16423 16.566 4.1879 16.793 4.27835C17.0199 4.36881 17.2139 4.522 17.3504 4.71854C17.4868 4.91508 17.5597 5.14615 17.5597 5.38253C17.56 5.53957 17.5282 5.69514 17.4659 5.84029C17.4036 5.98545 17.3121 6.11734 17.1967 6.22838C17.0813 6.33943 16.9442 6.42745 16.7934 6.48739C16.6425 6.54734 16.4809 6.57802 16.3177 6.57768ZM10.9358 7.37417C11.5909 7.37417 12.2313 7.56109 12.7759 7.91131C13.3206 8.26153 13.7452 8.7593 13.9958 9.34169C14.2465 9.92408 14.3121 10.5649 14.1843 11.1832C14.0565 11.8014 13.7411 12.3693 13.2779 12.8151C12.8146 13.2608 12.2245 13.5644 11.582 13.6874C10.9395 13.8103 10.2735 13.7472 9.66829 13.506C9.06307 13.2648 8.54578 12.8562 8.18184 12.3321C7.81789 11.808 7.62364 11.1918 7.62364 10.5614C7.62458 9.71636 7.97384 8.9062 8.59478 8.30868C9.21573 7.71116 10.0576 7.37507 10.9358 7.37417ZM10.9358 5.78077C9.95322 5.78077 8.9927 6.06115 8.17571 6.58645C7.35873 7.11175 6.72196 7.85838 6.34594 8.73192C5.96993 9.60546 5.87154 10.5667 6.06323 11.494C6.25493 12.4214 6.72809 13.2732 7.42288 13.9418C8.11767 14.6104 9.00289 15.0657 9.96659 15.2501C10.9303 15.4346 11.9292 15.3399 12.837 14.9781C13.7448 14.6163 14.5207 14.0035 15.0666 13.2173C15.6125 12.4312 15.9038 11.5069 15.9038 10.5614C15.9038 9.29349 15.3804 8.07752 14.4487 7.18098C13.517 6.28444 12.2534 5.78077 10.9358 5.78077Z" fill="#0B0B0B"/>
</svg>
