<svg width="22" height="22" viewBox="0 0 22 22" fill="none" xmlns="http://www.w3.org/2000/svg">
<path d="M15.0759 2.59339C16.173 2.59655 17.2242 3.01731 18 3.7638C18.7757 4.51029 19.213 5.52183 19.2162 6.57752V14.5449C19.213 15.6006 18.7757 16.6122 18 17.3586C17.2242 18.1051 16.173 18.5259 15.0759 18.529H6.79618C5.69911 18.5259 4.6479 18.1051 3.87215 17.3586C3.0964 16.6122 2.65914 15.6006 2.65586 14.5449V6.57752C2.65914 5.52183 3.0964 4.51029 3.87215 3.7638C4.6479 3.01731 5.69911 2.59655 6.79618 2.59339H15.0759ZM15.0759 1H6.79618C3.60821 1 1 3.50982 1 6.57752V14.5449C1 17.6126 3.60821 20.1224 6.79618 20.1224H15.0759C18.2639 20.1224 20.8721 17.6126 20.8721 14.5449V6.57752C20.8721 3.50982 18.2639 1 15.0759 1Z" fill="white"/>
<path d="M16.3179 6.57781C16.0723 6.57781 15.8322 6.50771 15.6279 6.37639C15.4237 6.24506 15.2645 6.0584 15.1705 5.84002C15.0765 5.62163 15.0519 5.38133 15.0998 5.14949C15.1477 4.91765 15.266 4.7047 15.4397 4.53755C15.6134 4.37041 15.8347 4.25658 16.0756 4.21047C16.3165 4.16435 16.5663 4.18802 16.7932 4.27848C17.0202 4.36893 17.2141 4.52212 17.3506 4.71866C17.4871 4.9152 17.5599 5.14627 17.5599 5.38265C17.5603 5.5397 17.5284 5.69526 17.4661 5.84042C17.4038 5.98557 17.3123 6.11746 17.1969 6.22851C17.0815 6.33955 16.9445 6.42757 16.7936 6.48752C16.6428 6.54746 16.4811 6.57814 16.3179 6.57781ZM10.936 7.37429C11.5911 7.37429 12.2315 7.56122 12.7762 7.91143C13.3209 8.26165 13.7454 8.75942 13.9961 9.34181C14.2468 9.9242 14.3124 10.565 14.1846 11.1833C14.0568 11.8016 13.7413 12.3695 13.2781 12.8152C12.8149 13.2609 12.2247 13.5645 11.5822 13.6875C10.9397 13.8105 10.2738 13.7473 9.66854 13.5061C9.06332 13.2649 8.54603 12.8564 8.18208 12.3322C7.81814 11.8081 7.62388 11.1919 7.62388 10.5615C7.62482 9.71648 7.97408 8.90632 8.59503 8.3088C9.21598 7.71128 10.0579 7.37519 10.936 7.37429ZM10.936 5.78089C9.95346 5.78089 8.99295 6.06127 8.17596 6.58657C7.35897 7.11187 6.72221 7.8585 6.34619 8.73204C5.97017 9.60559 5.87179 10.5668 6.06348 11.4942C6.25517 12.4215 6.72833 13.2733 7.42312 13.9419C8.11791 14.6105 9.00313 15.0658 9.96683 15.2503C10.9305 15.4347 11.9294 15.34 12.8372 14.9782C13.745 14.6164 14.5209 14.0036 15.0668 13.2175C15.6127 12.4313 15.9041 11.507 15.9041 10.5615C15.9041 9.29361 15.3807 8.07764 14.449 7.1811C13.5173 6.28456 12.2536 5.78089 10.936 5.78089Z" fill="white"/>
</svg>
