<svg width="71" height="76" viewBox="0 0 71 76" fill="none" xmlns="http://www.w3.org/2000/svg">
<path fill-rule="evenodd" clip-rule="evenodd" d="M60.8916 3.96431C63.5652 4.71876 63.6989 4.77264 64.0464 5.66182C65.4088 8.75101 66.5766 11.9666 67.5489 15.2002C69.1263 20.1311 69.8482 23.7686 70.3027 28.9689C70.5433 31.7442 70.5433 33.1453 70.2759 35.3009C69.458 42.1844 66.7983 49.6313 62.4958 55.0513C58.1704 60.4626 52.7804 64.2094 47.2699 68.0399C45.9578 68.952 44.6389 69.8688 43.326 70.814C42.5582 71.4771 36.9388 75.3444 38.968 72.9695C39.877 71.8917 42.2031 67.2842 42.8447 65.2903C44.7965 59.1739 44.3687 52.3299 41.6951 46.9141C40.3315 44.1118 38.7005 41.7285 38.0857 41.9562C37.7981 42.0628 37.8985 42.4143 38.1124 42.8454L38.1152 42.8513C38.4174 43.488 40.1462 47.131 40.7326 49.3067C41.7089 53.5848 41.3001 55.6051 40.8653 57.754C40.8208 57.9736 40.7761 58.1946 40.7326 58.4194C40.5187 59.5242 40.3315 60.09 40.3315 59.6589C40.0178 54.6003 37.6957 49.9164 35.3804 45.2461C32.0176 38.463 28.669 31.7086 31.5086 23.8764C32.792 20.2119 35.7329 16.9786 39.7166 14.9038C41.6416 13.9069 41.5347 13.5027 39.4492 13.7183C33.6742 14.311 29.0756 18.6761 27.4715 25.1159C25.5226 32.8601 28.9846 40.0358 32.3973 47.1091C34.2189 50.8847 36.0265 54.6312 36.9895 58.4194C38.5 65.2903 35.0911 75.3757 35.0911 75.3757C33.5496 74.4279 31.994 73.4991 30.4398 72.5711C24.5136 69.0327 18.6065 65.5057 13.5687 60.9792C8.62839 56.5198 3.8989 50.2136 1.88504 43.7346C0.280874 38.6421 -0.334054 33.1454 0.173932 28.3492C0.681917 23.4992 1.24338 20.6969 2.49997 16.5205C2.56218 16.3192 2.62435 16.1177 2.68658 15.916C3.68499 12.6802 4.69775 9.39782 6.08261 6.30849C6.77796 5.26105 7.63839 4.82396 8.70274 4.28764C11.002 3.12902 21.2954 0.973458 28.0062 0.272896C31.7225 -0.131273 38.8343 -0.0773909 42.9784 0.353723C49.0384 0.998584 55.0739 2.11284 60.8916 3.96431ZM23.3542 3.85791C24.3167 3.69624 26.9636 3.45374 29.2361 3.29207C33.664 2.97708 37.7362 2.97765 42.2031 3.31902C45.4649 3.56152 46.5344 3.69625 50.7052 4.36986C51.6142 4.53153 52.8174 4.72014 53.3788 4.80097C53.4081 4.80687 53.4409 4.81344 53.4772 4.82068C54.4131 5.00762 57.5764 5.63948 57.5764 6.55237C57.5764 6.71404 58.2448 8.24989 59.0736 9.97435C59.9024 11.6988 60.758 13.6119 60.9719 14.2046C63.5653 21.2641 63.9396 22.4497 64.8219 26.4645C65.7576 30.6678 66.0785 34.8981 65.8378 38.859C65.5705 42.4696 65.116 44.4635 63.9663 46.7268C63.8326 46.9963 63.7257 47.3196 63.7257 47.4543C63.7257 48.1279 59.9292 53.6785 59.4479 53.6785C59.341 53.6785 58.9667 53.2744 58.6458 52.7624C57.5764 50.9841 55.8385 49.7985 52.951 48.8555C51.6677 48.4243 51.4805 48.586 52.1489 49.556C54.2878 52.6816 54.3413 56.9658 52.2826 59.1483C51.4003 60.0914 51.1865 59.7411 51.3469 57.7202C51.6944 53.8402 49.6358 49.556 45.1174 44.7868C44.4384 44.0623 43.8015 43.3077 43.1646 42.5531C42.6981 42.0003 42.2316 41.4476 41.7486 40.9068C39.8717 38.8261 38.5951 34.6449 39.5028 32.0151C40.1785 30.0438 41.6339 28.9523 43.433 28.162L42.6844 28.0003C41.6417 27.8117 39.583 28.162 38.7542 28.7009C38.3799 28.9434 37.9521 29.1589 37.7917 29.1589C36.7356 29.1589 38.3265 24.1201 38.6472 23.5275C40.0375 20.9139 42.6042 19.0008 45.8927 18.1386C47.3365 17.7613 47.4701 18.3811 46.2135 19.5666C45.6788 20.0786 45.3045 20.6444 45.4115 20.8061C45.5184 20.9678 46.7483 21.0755 48.5128 21.0755C48.5128 21.0755 50.9325 20.9139 51.4805 21.0755C51.6006 21.111 51.66 21.2294 51.758 21.4248C51.9153 21.7384 52.1718 22.25 52.9377 22.9347C53.1996 23.1688 53.4357 23.3671 53.639 23.5379C54.401 24.1778 54.7032 24.4316 54.1809 24.74C53.439 25.2587 50.5047 24.6726 50.1304 23.541C50.0234 23.1637 49.5021 22.8337 48.5128 22.8337C47.0424 22.8337 46.6146 23.285 46.6146 24.4706C46.6146 25.1172 46.8457 25.7235 47.7241 26.5318C48.954 27.6635 49.8496 28.3371 51.9351 28.9568C52.6569 29.1724 53.2719 29.3206 53.2719 29.3206C51.2115 30.3042 49.6727 30.5768 48.1428 30.8478C47.4095 30.9777 46.6783 31.1072 45.8927 31.3145C43.505 31.9445 42.2098 34.11 42.2098 37.6465C42.9116 36.8381 43.8283 35.9837 44.9569 36.5687C46.2135 37.2423 47.684 40.0446 47.684 41.7421C47.684 42.8199 47.7375 42.9007 48.4326 42.9546C50.9993 43.1162 52.1489 42.6043 53.3788 40.6912C54.0205 39.6673 53.967 39.4787 52.9243 39.6134C52.0955 39.7212 51.9351 39.6134 51.2399 38.6165C49.6625 36.3262 48.9674 35.0598 49.101 34.6826C49.4753 33.7665 52.9243 33.4701 54.9562 34.1706C56.3465 34.6287 56.6139 35.0329 56.2128 36.1106C55.9455 36.7843 56.0257 36.7573 57.0417 35.7604C58.4052 34.4131 59.8423 32.0689 59.6551 31.5839C59.5294 31.2884 58.9964 31.0154 58.5332 30.7781C58.052 30.5317 57.6461 30.3238 57.8504 30.1693C58.1179 29.9672 58.4927 30.1458 58.9094 30.3443C59.2426 30.5031 59.6025 30.6746 59.9559 30.6746C59.9559 28.9221 58.2358 27.0534 56.6085 25.2855C55.5861 24.1748 54.6003 23.1038 54.1007 22.1264C53.6194 21.2103 52.7104 20.0516 51.7746 19.2164L50.2239 17.8152L50.8389 17.3841C51.1865 17.1416 51.8549 16.3872 52.3094 15.7135C53.8104 13.5227 53.2907 8.94246 51.3335 6.97001C49.7293 7.57626 43.6547 8.12855 40.3316 7.60322C37.7382 7.19905 32.2038 7.03738 30.0382 7.30683C26.2805 7.7888 22.6485 9.23418 19.9052 11.9413C18.3813 13.4771 15.1262 17.1618 15.34 17.3774C15.3527 17.4029 15.7771 17.1281 16.3057 16.7859C16.8939 16.405 17.6112 15.9406 18.0337 15.7135C19.8648 14.707 30.6987 11.4199 25.3594 15.5249C19.8584 19.8368 18.8653 25.8922 20.4132 32.3923C21.349 35.949 21.6431 36.5956 27.7924 48.8555C28.0028 49.2758 28.2373 49.7301 28.4862 50.212C30.6465 54.3957 33.884 60.6656 31.7493 64.9683C31.2413 65.9653 30.9472 65.8575 30.7333 64.5911C29.7773 58.4891 26.439 53.2206 23.1208 47.9837C19.3648 42.056 15.6344 36.1687 15.4136 29.1589C15.2799 25.6561 15.574 23.9317 16.7236 21.5336C17.1247 20.6983 17.4722 19.9169 17.4722 19.8361C17.4722 19.7283 16.9643 20.1864 16.3226 20.833C13.9431 23.258 11.5903 27.5692 10.6011 31.3145C8.98275 37.4619 9.09984 44.236 10.815 50.3644C11.4032 52.6546 11.4299 53.1397 11.0021 53.1397C10.2268 53.0858 7.36601 48.4513 6.21636 45.4604C2.38605 35.1666 6.27208 23.859 9.82573 14.0699C10.0664 13.4233 11.0556 11.2677 12.0181 9.30073C13.3549 6.55238 13.8896 5.69015 14.3441 5.60931C17.2893 4.86728 20.3512 4.27824 23.3542 3.85791Z" fill="#D4AF37"/>
</svg>
