<svg width="64" height="64" viewBox="0 0 64 64" fill="none" xmlns="http://www.w3.org/2000/svg">
<circle cx="32" cy="32" r="31.5" fill="white" stroke="#FFB629"/>
<path d="M23.9741 23.1408C23.8394 23.1449 23.7071 23.1743 23.5848 23.2272C23.4625 23.28 23.3528 23.3554 23.2622 23.4487C23.1715 23.542 23.1018 23.6514 23.0571 23.7704C23.0124 23.8894 22.9936 24.0156 23.0019 24.1416C23.1364 26.3015 23.7704 31.5716 26.8059 34.8583C30.4409 38.8181 35.1748 40.1824 40.0317 39.9808C40.292 39.9662 40.5368 39.8596 40.7165 39.6826C40.8962 39.5055 40.9975 39.2712 41 39.0268V35.5674C40.997 35.2446 40.8783 34.9322 40.663 34.6802C40.4476 34.4282 40.1482 34.2513 39.8127 34.1779L37.3804 33.6739C37.0796 33.6138 36.7664 33.6397 36.4815 33.7481C36.1965 33.8566 35.9528 34.0427 35.7819 34.2823L35.244 35.0454C35.1946 35.1153 35.1208 35.1668 35.0352 35.1911C34.9496 35.2154 34.8577 35.211 34.7752 35.1786C33.5379 34.6783 28.6081 32.5184 28.0663 28.8753C28.0557 28.805 28.0675 28.7333 28.1003 28.6692C28.1332 28.6051 28.1855 28.5516 28.2507 28.5154L29.2267 27.9574C29.4944 27.802 29.7047 27.5732 29.8291 27.3022C29.9535 27.0311 29.986 26.7308 29.9222 26.4419L29.3881 24.1236C29.31 23.7988 29.1142 23.5093 28.8339 23.3045C28.5537 23.0998 28.2064 22.9923 27.8511 23.0004L23.9741 23.1408Z" stroke="#0B0B0B"/>
</svg>
