<svg width="72" height="73" viewBox="0 0 72 73" fill="none" xmlns="http://www.w3.org/2000/svg">
<circle cx="36" cy="36.5" r="36" fill="url(#paint0_linear_259_2182)"/>
<path d="M33.2687 26.25C33.7697 26.25 34.1992 26.4289 34.5571 26.7868C34.8434 27.1447 34.9865 27.5742 34.9865 28.0752C34.9865 28.6478 34.8792 29.2205 34.6644 29.7931L28.974 44.5022C28.6162 45.218 28.2583 45.7906 27.9004 46.2201C27.4709 46.7211 26.7909 46.9716 25.8604 46.9716L22.3173 46.9716C21.7447 46.9716 21.3153 46.7569 21.029 46.3274C20.6711 45.898 20.5637 45.3254 20.7069 44.6096L23.0689 29.3636C23.1405 28.5047 23.4268 27.7531 23.9278 27.1089C24.4289 26.5363 25.1804 26.25 26.1825 26.25L33.2687 26.25ZM50.4472 26.25C50.9483 26.25 51.3777 26.4289 51.7356 26.7868C52.0219 27.1447 52.1651 27.5742 52.1651 28.0752C52.1651 28.6478 52.0577 29.2205 51.843 29.7931L46.1526 44.5022C45.7947 45.218 45.401 45.7906 44.9716 46.2201C44.5421 46.7211 43.8979 46.9716 43.039 46.9716H39.4959C38.9233 46.9716 38.4938 46.7569 38.2075 46.3274C37.8496 45.898 37.7423 45.3254 37.8854 44.6096L40.2475 29.3636C40.319 28.5047 40.6054 27.7531 41.1064 27.1089C41.6074 26.5363 42.3232 26.25 43.2537 26.25L50.4472 26.25Z" fill="#0B0B0B"/>
<defs>
<linearGradient id="paint0_linear_259_2182" x1="-2.04124" y1="16.1" x2="88.5353" y2="22.5322" gradientUnits="userSpaceOnUse">
<stop stop-color="#FFB629"/>
<stop offset="0.507189" stop-color="#FFDA56"/>
<stop offset="1" stop-color="#FFD7A6"/>
</linearGradient>
</defs>
</svg>
