<svg width="64" height="64" viewBox="0 0 64 64" fill="none" xmlns="http://www.w3.org/2000/svg">
<path d="M53.1611 6.56338H21.1611V15.0141L42.4945 15.5775L43.0559 46H53.1611V6.56338Z" fill="#FFD550"/>
<circle cx="32.1611" cy="47" r="4" fill="#FFD550"/>
<path d="M42.8727 58H9.30805C8.58568 58 8 57.4143 8 56.6919V16.4146C8 15.6922 8.58568 15.1065 9.30805 15.1065H42.8725C43.5949 15.1065 44.1806 15.6922 44.1806 16.4146V18.9924H47.4893C48.2117 18.9924 48.7973 19.5781 48.7973 20.3005C48.7973 21.0228 48.2117 21.6085 47.4893 21.6085H44.1806V24.979C44.1611 25 44.1806 27.5951 44.1806 27.5951V27.9658H47.4893C48.2117 27.9658 48.7973 28.5515 48.7973 29.2739C48.7973 29.9962 48.2117 30.5819 47.4893 30.5819H44.1806V36.9523H45.8173C46.5396 36.9523 47.1253 37.538 47.1253 38.2603C47.1253 38.9827 46.5396 39.5684 45.8173 39.5684H44.1806V56.6919C44.1807 57.4143 43.5951 58 42.8727 58ZM10.1611 56H42.1611V17H10.1611V56ZM32.3514 52.9462C28.987 52.9462 26.25 50.2092 26.25 46.8451C26.25 43.4809 28.987 40.744 32.3514 40.744C35.7153 40.744 38.4523 43.4809 38.4523 46.8451C38.4523 50.2092 35.7153 52.9462 32.3514 52.9462ZM32.3514 43.3601C30.4295 43.3601 28.8661 44.9236 28.8661 46.8451C28.8661 48.7666 30.4295 50.3301 32.3514 50.3301C34.2729 50.3301 35.8362 48.7666 35.8362 46.8451C35.8362 44.9236 34.2729 43.3601 32.3514 43.3601ZM54.0134 47.8935H44.0282C43.3058 47.8935 42.7201 47.3078 42.7201 46.5854C42.7201 45.8631 43.3058 45.2774 44.0282 45.2774H53.1611V7H21.1611V11.754C21.1611 12.4763 20.6611 13 20.1611 13C19.4388 13 19.1408 12.4763 19.1408 11.754V6.30805C19.1408 5.58568 19.7265 5 20.4489 5H54.0132C54.7356 5 55.3213 5.58568 55.3213 6.30805V46.5854C55.3214 47.3078 54.7356 47.8935 54.0134 47.8935ZM22.3587 43.4657H15.9873C15.2649 43.4657 14.6792 42.8801 14.6792 42.1577C14.6792 41.4353 15.2649 40.8496 15.9873 40.8496H22.3587C23.081 40.8496 23.6667 41.4353 23.6667 42.1577C23.6667 42.8801 23.081 43.4657 22.3587 43.4657ZM36.1934 34.8852H15.9873C15.2649 34.8852 14.6792 34.2995 14.6792 33.5772C14.6792 32.8548 15.2649 32.2691 15.9873 32.2691H36.1934C36.9158 32.2691 37.5015 32.8548 37.5015 33.5772C37.5015 34.2995 36.9158 34.8852 36.1934 34.8852ZM22.3587 26.095H15.9873C15.2649 26.095 14.6792 25.5093 14.6792 24.7869C14.6792 24.0645 15.2649 23.4789 15.9873 23.4789H22.3587C23.081 23.4789 23.6667 24.0645 23.6667 24.7869C23.6667 25.5093 23.081 26.095 22.3587 26.095Z" fill="#0B0B0B"/>
</svg>
