<svg width="64" height="64" viewBox="0 0 64 64" fill="none" xmlns="http://www.w3.org/2000/svg">
<path d="M6.04785 54H58.4288" stroke="#0B0B0B" stroke-width="2" stroke-linecap="round" stroke-linejoin="round"/>
<path d="M36.4285 54V11.913C36.4285 11.4057 36.2235 10.9191 35.8587 10.5603C35.4938 10.2016 34.9989 10 34.4829 10H11.136C10.62 10 10.1251 10.2016 9.76028 10.5603C9.39541 10.9191 9.19043 11.4057 9.19043 11.913V54" stroke="#0B0B0B" stroke-width="2" stroke-linecap="round" stroke-linejoin="round"/>
<path d="M36.4287 23.5713H52.2859C53.9427 23.5713 55.2859 24.9144 55.2859 26.5713V53.9522H36.4287V23.5713Z" fill="#FFD550" stroke="#0B0B0B" stroke-width="2" stroke-linecap="round" stroke-linejoin="round"/>
<path d="M17.5713 19.4286H24.9046" stroke="#0B0B0B" stroke-width="2" stroke-linecap="round" stroke-linejoin="round"/>
<path d="M5 49.8096L5 35.1429" stroke="#0B0B0B" stroke-width="2" stroke-linecap="round" stroke-linejoin="round"/>
<path d="M59.4766 39.333L59.4766 24.6663" stroke="#0B0B0B" stroke-width="2" stroke-linecap="round" stroke-linejoin="round"/>
<path d="M39.5713 18.381H46.9046" stroke="#0B0B0B" stroke-width="2" stroke-linecap="round" stroke-linejoin="round"/>
<path d="M20.7139 35.1426H28.0472" stroke="#0B0B0B" stroke-width="2" stroke-linecap="round" stroke-linejoin="round"/>
<path d="M17.5713 44.5714H24.9046" stroke="#0B0B0B" stroke-width="2" stroke-linecap="round" stroke-linejoin="round"/>
<path d="M43.7617 44.5714H47.9522" stroke="#0B0B0B" stroke-width="2" stroke-linecap="round" stroke-linejoin="round"/>
<path d="M43.7617 35.1426H47.9522" stroke="#0B0B0B" stroke-width="2" stroke-linecap="round" stroke-linejoin="round"/>
</svg>
