<svg width="64" height="64" viewBox="0 0 64 64" fill="none" xmlns="http://www.w3.org/2000/svg">
<path d="M28.2985 55.6504H38.7829C39.7098 55.6504 40.5987 55.281 41.2541 54.6234C41.9095 53.9659 42.2777 53.0741 42.2777 52.1441V12.4066C42.2777 11.4767 41.9095 10.5849 41.2541 9.92735C40.5987 9.2698 39.7098 8.90039 38.7829 8.90039H17.8142C16.8873 8.90039 15.9984 9.2698 15.343 9.92735C14.6876 10.5849 14.3194 11.4767 14.3194 12.4066V34.9986C14.3167 35.4629 14.4519 35.9174 14.7077 36.3043C14.9635 36.6912 15.3284 36.9929 15.7558 37.171C16.1832 37.349 16.6537 37.3953 17.1075 37.304C17.5612 37.2127 17.9776 36.9879 18.3034 36.6582L23.499 31.4573C24.1598 30.7648 25.0584 30.3505 26.0124 30.2985C26.9665 30.2464 27.9046 30.5604 28.6364 31.1768C29.004 31.5079 29.3006 31.9107 29.5078 32.3607C29.7151 32.8107 29.8287 33.2983 29.8418 33.7938C29.8549 34.2893 29.7671 34.7823 29.5839 35.2426C29.4007 35.703 29.1258 36.121 28.7762 36.4712L24.9435 40.3164C23.8732 41.39 23.0256 42.6658 22.4497 44.07C21.8738 45.4743 21.5811 46.9792 21.5885 48.4976C21.5732 50.4228 20.8009 52.264 19.4397 53.621C18.0785 54.9779 16.2383 55.7409 14.3194 55.7439" fill="#FFD550"/>
<path d="M14.3194 25.2627L7.99387 31.609C6.07773 33.5306 5.00082 36.1371 5 38.8553V50.9752" stroke="#0B0B0B" stroke-width="2"/>
<path d="M28.2985 55.6504H38.7829C39.7098 55.6504 40.5987 55.281 41.2541 54.6234C41.9095 53.9659 42.2777 53.0741 42.2777 52.1441V12.4066C42.2777 11.4767 41.9095 10.5849 41.2541 9.92735C40.5987 9.2698 39.7098 8.90039 38.7829 8.90039H17.8142C16.8873 8.90039 15.9984 9.2698 15.343 9.92735C14.6876 10.5849 14.3194 11.4767 14.3194 12.4066V34.9986C14.3167 35.4629 14.4519 35.9174 14.7077 36.3043C14.9635 36.6912 15.3284 36.9929 15.7558 37.171C16.1832 37.349 16.6537 37.3953 17.1075 37.304C17.5612 37.2127 17.9776 36.9879 18.3034 36.6582L23.499 31.4573C24.1598 30.7648 25.0584 30.3506 26.0124 30.2985C26.9665 30.2464 27.9046 30.5604 28.6364 31.1768C29.004 31.5079 29.3006 31.9107 29.5078 32.3607C29.7151 32.8107 29.8287 33.2983 29.8418 33.7938C29.8549 34.2893 29.7671 34.7823 29.5839 35.2426C29.4007 35.703 29.1258 36.121 28.7762 36.4712L24.9435 40.3164C23.8732 41.39 23.0256 42.6658 22.4497 44.07C21.8738 45.4743 21.5811 46.9792 21.5885 48.4976C21.5732 50.4228 20.8009 52.264 19.4397 53.621C18.0785 54.9779 16.2383 55.7409 14.3194 55.7439" stroke="#0B0B0B" stroke-width="2"/>
<path d="M27.1338 50.9746H29.4637" stroke="#0B0B0B" stroke-width="2"/>
<path d="M23.6387 13.5752H32.9581" stroke="#0B0B0B" stroke-width="2"/>
<path d="M52.7383 39C54.9574 36.9651 56.7179 34.5489 57.919 31.8893C59.1201 29.2297 59.7383 26.379 59.7383 23.5C59.7383 20.621 59.1201 17.7703 57.919 15.1107C56.7179 12.4511 54.9574 10.0349 52.7383 8" stroke="#0B0B0B" stroke-width="2"/>
<path d="M48.7383 33C51.2997 30.479 52.7383 27.0623 52.7383 23.5C52.7383 19.9377 51.2997 16.521 48.7383 14" stroke="#0B0B0B" stroke-width="2"/>
</svg>
