<svg width="22" height="22" viewBox="0 0 22 22" fill="none" xmlns="http://www.w3.org/2000/svg">
<path d="M17.7418 3.79727C15.9414 1.99258 13.5437 1 10.9957 1C5.73633 1 1.45664 5.27969 1.45664 10.5391C1.45664 12.2191 1.89492 13.8605 2.72852 15.3086L1.375 20.25L6.43242 18.9223C7.82461 19.6828 9.39297 20.0824 10.9914 20.0824H10.9957C16.2508 20.0824 20.625 15.8027 20.625 10.5434C20.625 7.99531 19.5422 5.60195 17.7418 3.79727ZM10.9957 18.4754C9.56914 18.4754 8.17266 18.093 6.95664 17.3711L6.66875 17.1992L3.66953 17.9855L4.46875 15.0594L4.27969 14.7586C3.48477 13.4953 3.06797 12.0387 3.06797 10.5391C3.06797 6.16914 6.62578 2.61133 11 2.61133C13.1184 2.61133 15.1078 3.43633 16.6031 4.93594C18.0984 6.43555 19.018 8.425 19.0137 10.5434C19.0137 14.9176 15.3656 18.4754 10.9957 18.4754ZM15.3441 12.5371C15.1078 12.4168 13.9348 11.841 13.7156 11.7637C13.4965 11.682 13.3375 11.6434 13.1785 11.884C13.0195 12.1246 12.5641 12.6574 12.4223 12.8207C12.2848 12.9797 12.143 13.0012 11.9066 12.8809C10.5059 12.1805 9.58633 11.6305 8.6625 10.0449C8.41758 9.62383 8.90742 9.65391 9.36289 8.74297C9.44023 8.58398 9.40156 8.44648 9.34141 8.32617C9.28125 8.20586 8.8043 7.03281 8.60664 6.55586C8.41328 6.0918 8.21563 6.15625 8.06953 6.14766C7.93203 6.13906 7.77305 6.13906 7.61406 6.13906C7.45508 6.13906 7.19727 6.19922 6.97812 6.43555C6.75898 6.67617 6.14453 7.25195 6.14453 8.425C6.14453 9.59805 6.99961 10.7324 7.11563 10.8914C7.23594 11.0504 8.7957 13.4566 11.1891 14.4922C12.7016 15.1453 13.2945 15.2012 14.0508 15.0895C14.5105 15.0207 15.4602 14.5137 15.6578 13.9551C15.8555 13.3965 15.8555 12.9195 15.7953 12.8207C15.7395 12.7133 15.5805 12.6531 15.3441 12.5371Z" fill="white"/>
</svg>
