<svg width="504" height="267" viewBox="0 0 504 267" fill="none" xmlns="http://www.w3.org/2000/svg">
<path fill-rule="evenodd" clip-rule="evenodd" d="M262.401 25.3904L391.096 262L273.981 250.51L150.729 0L262.401 25.3904Z" fill="#B66200"/>
<path fill-rule="evenodd" clip-rule="evenodd" d="M455 50L475 227L55.2583 249.982L10.1143 14.422L455 50Z" fill="#FFBA00"/>
<path fill-rule="evenodd" clip-rule="evenodd" d="M19.7295 156.576L40.1607 165.854L36.5495 147.826L19.7295 156.576Z" fill="#B66200"/>
<path fill-rule="evenodd" clip-rule="evenodd" d="M145 245L195.5 267L229.97 240.56L145 245Z" fill="#B66200"/>
<path fill-rule="evenodd" clip-rule="evenodd" d="M475.224 93.7435L459.601 87.7344L461.998 105.762L475.224 93.7435Z" fill="#B66200"/>
<path fill-rule="evenodd" clip-rule="evenodd" d="M475.5 227L458.891 86L258.5 238.5L475.5 227Z" fill="#EAAA00"/>
<path fill-rule="evenodd" clip-rule="evenodd" d="M475.224 93.7432L272.752 250.544L389.995 262L503.504 149.215L475.224 93.7432Z" fill="#D54D00"/>
<path fill-rule="evenodd" clip-rule="evenodd" d="M281.5 36L39.3653 165.853L14.9219 41.058L66.5 19L281.5 36Z" fill="#EAAA00"/>
<path fill-rule="evenodd" clip-rule="evenodd" d="M19.2123 156.239L0.5 59.1648L150.214 0L262.5 25.2352L19.2123 156.239Z" fill="#D54D00"/>
</svg>
