<svg width="788" height="419" viewBox="0 0 788 419" fill="none" xmlns="http://www.w3.org/2000/svg">
<path fill-rule="evenodd" clip-rule="evenodd" d="M410.291 39.7764L611.903 410.446L428.432 392.446L235.348 0.00012207L410.291 39.7764Z" fill="#B66200"/>
<path fill-rule="evenodd" clip-rule="evenodd" d="M712.014 78.3278L743.345 355.614L85.7836 391.616L15.0615 22.5918L712.014 78.3278Z" fill="#FFBA00"/>
<path fill-rule="evenodd" clip-rule="evenodd" d="M30.125 245.29L62.1322 259.824L56.475 231.582L30.125 245.29Z" fill="#B66200"/>
<path fill-rule="evenodd" clip-rule="evenodd" d="M226.372 383.814L305.484 418.279L359.485 376.857L226.372 383.814Z" fill="#B66200"/>
<path fill-rule="evenodd" clip-rule="evenodd" d="M743.698 146.858L719.222 137.444L722.978 165.686L743.698 146.858Z" fill="#B66200"/>
<path fill-rule="evenodd" clip-rule="evenodd" d="M744.129 355.615L718.108 134.727L404.179 373.631L744.129 355.615Z" fill="#EAAA00"/>
<path fill-rule="evenodd" clip-rule="evenodd" d="M743.697 146.857L426.507 392.5L610.179 410.446L788.001 233.759L743.697 146.857Z" fill="#D54D00"/>
<path fill-rule="evenodd" clip-rule="evenodd" d="M440.211 56.3966L60.8861 259.823L22.5933 64.3204L103.395 29.7646L440.211 56.3966Z" fill="#EAAA00"/>
<path fill-rule="evenodd" clip-rule="evenodd" d="M29.3145 244.761L0 92.6869L234.54 0L410.446 39.5332L29.3145 244.761Z" fill="#D54D00"/>
</svg>
