<svg width="168" height="168" viewBox="0 0 168 168" fill="none" xmlns="http://www.w3.org/2000/svg">
<path fill-rule="evenodd" clip-rule="evenodd" d="M107.097 47.5898C82.1074 47.5898 61.4705 67.1204 60.0843 92.0821L58.8617 114.104C58.7365 116.354 60.5265 118.247 62.7791 118.247H156.613C157.739 118.247 158.634 117.301 158.571 116.176L156.931 86.6261C156.815 84.5461 155.095 82.9186 153.013 82.9186H123.373L121.617 51.2974C121.502 49.2173 119.782 47.5898 117.699 47.5898H107.097ZM107.902 59.3661H107.492C88.0722 59.3661 72.0348 74.0632 70.9577 92.8475L70.7961 95.6671C70.7156 97.0693 72.0897 98.0997 73.412 97.6291L98.8005 88.5939C100.417 88.0189 102.125 87.7245 103.847 87.7245H107.902C108.985 87.7245 109.864 86.8456 109.864 85.7618V61.3288C109.864 60.245 108.985 59.3661 107.902 59.3661Z" fill="white" fill-opacity="0.8"/>
<path fill-rule="evenodd" clip-rule="evenodd" d="M34.9517 38.6909C35.18 37.9341 34.4581 37.2134 33.68 37.3504C31.7676 37.6872 29.7534 37.6213 27.7544 37.0854C25.7559 36.5496 23.979 35.5997 22.4915 34.3522C21.8858 33.8442 20.9006 34.1072 20.7201 34.877L9.88307 81.0638L8.2519 90.104C6.8013 98.1402 11.7502 105.947 19.6348 108.061L20.3242 108.246C26.3887 109.871 32.838 107.725 36.7205 102.789L45.9664 91.034C47.0332 89.6773 45.9562 87.7025 44.2384 87.8662L39.3867 88.3286C39.2878 88.338 39.1881 88.3325 39.0912 88.3117L28.8338 86.1433L22.2308 84.3733C21.696 84.2301 21.3857 83.6722 21.5456 83.1419L34.9517 38.6909Z" fill="white" fill-opacity="0.8"/>
<path d="M40.7841 26.3559C39.3818 31.591 34.0031 34.698 28.77 33.2951C23.537 31.8925 20.4316 26.5113 21.8337 21.276C23.2359 16.0409 28.6147 12.9341 33.8477 14.3368C39.0804 15.7396 42.186 21.1207 40.7841 26.3559Z" fill="white" fill-opacity="0.8"/>
<path fill-rule="evenodd" clip-rule="evenodd" d="M44.2918 31.233C43.684 31.0442 43.4136 30.3365 43.6887 29.7626C44.0509 29.0061 44.3491 28.2057 44.5739 27.3662C45.2939 24.6772 45.1648 21.9606 44.3506 19.5017C44.0913 18.7181 44.7646 17.8632 45.5709 18.0388C64.2216 22.1007 82.6929 27.1068 92.6709 44.0856C92.9903 44.6293 92.7043 45.3249 92.1028 45.5129C87.7211 46.8817 83.5891 48.8271 79.7976 51.2617C79.3299 51.562 78.7056 51.4261 78.3964 50.9641C71.1728 40.1779 57.3609 35.2872 44.2918 31.233Z" fill="white" fill-opacity="0.8"/>
<path fill-rule="evenodd" clip-rule="evenodd" d="M66.7037 122.172C58.0358 122.172 51.0088 129.202 51.0088 137.874C51.0088 146.545 58.0358 153.575 66.7037 153.575H145.178C153.846 153.575 160.873 146.545 160.873 137.874C160.873 129.202 153.846 122.172 145.178 122.172H66.7037ZM78.4749 137.874C78.4749 142.21 74.9616 145.724 70.6274 145.724C66.2933 145.724 62.78 142.21 62.78 137.874C62.78 133.538 66.2933 130.023 70.6274 130.023C74.9616 130.023 78.4749 133.538 78.4749 137.874ZM102.017 137.874C102.017 142.21 98.5039 145.724 94.1698 145.724C89.8356 145.724 86.3223 142.21 86.3223 137.874C86.3223 133.538 89.8356 130.023 94.1698 130.023C98.5039 130.023 102.017 133.538 102.017 137.874ZM117.712 145.724C122.046 145.724 125.56 142.21 125.56 137.874C125.56 133.538 122.046 130.023 117.712 130.023C113.378 130.023 109.865 133.538 109.865 137.874C109.865 142.21 113.378 145.724 117.712 145.724ZM149.102 137.874C149.102 142.21 145.589 145.724 141.255 145.724C136.92 145.724 133.407 142.21 133.407 137.874C133.407 133.538 136.92 130.023 141.255 130.023C145.589 130.023 149.102 133.538 149.102 137.874Z" fill="white" fill-opacity="0.8"/>
</svg>
