<svg width="168" height="168" viewBox="0 0 168 168" fill="none" xmlns="http://www.w3.org/2000/svg">
<g clip-path="url(#clip0_376_17007)">
<path d="M65.9114 119.604C65.5624 118.995 64.915 118.623 64.2122 118.623H46.718C46.0174 118.623 45.3697 118.995 45.0181 119.604L36.2634 134.757C35.9125 135.364 35.9125 136.11 36.2634 136.72L45.0181 151.87C45.3697 152.477 46.0174 152.851 46.718 152.851H64.2122C64.9128 152.851 65.5624 152.478 65.9114 151.87L74.6625 136.72C75.0137 136.11 75.0137 135.364 74.6625 134.757L65.9114 119.604ZM55.4673 147.443C49.0142 147.443 43.7647 142.189 43.7647 135.735C43.7647 129.285 49.0142 124.035 55.4673 124.035C61.9205 124.035 67.1699 129.285 67.1699 135.735C67.1677 142.19 61.9201 147.443 55.4673 147.443Z" fill="white" fill-opacity="0.8"/>
<path d="M55.4674 127.961C51.179 127.961 47.6897 131.449 47.6897 135.735C47.6897 140.028 51.179 143.518 55.4674 143.518C59.7559 143.518 63.2448 140.028 63.2448 135.735C63.2426 131.453 59.7555 127.961 55.4674 127.961Z" fill="white" fill-opacity="0.8"/>
<path d="M67.0662 94.0646C66.7219 93.0408 65.6094 92.487 64.5809 92.8283L45.1003 99.3695C44.074 99.7145 43.519 100.828 43.8662 101.857C44.1411 102.677 44.9071 103.195 45.7271 103.195C45.9334 103.195 46.1452 103.16 46.3511 103.091L65.831 96.5524C66.8581 96.2055 67.4112 95.092 67.0662 94.0646Z" fill="white" fill-opacity="0.8"/>
<path d="M67.0662 86.215C66.7219 85.1884 65.6094 84.636 64.5809 84.9784L45.1003 91.5199C44.074 91.8646 43.519 92.9789 43.8662 94.0074C44.1411 94.8277 44.9071 95.3451 45.7271 95.3451C45.9334 95.3451 46.1452 95.3108 46.3511 95.2418L65.831 88.7028C66.8581 88.3556 67.4112 87.2428 67.0662 86.215Z" fill="white" fill-opacity="0.8"/>
<path d="M67.0662 78.3648C66.7219 77.3385 65.6094 76.7893 64.5809 77.1285L45.1003 83.6697C44.074 84.0147 43.519 85.1282 43.8662 86.1571C44.1411 86.9778 44.9071 87.4948 45.7271 87.4948C45.9334 87.4948 46.1452 87.4605 46.3511 87.3915L65.831 80.8511C66.8581 80.505 67.4112 79.3911 67.0662 78.3648Z" fill="white" fill-opacity="0.8"/>
<path d="M67.0662 68.5518C66.7219 67.5255 65.6094 66.9724 64.5809 67.3156L45.1003 73.8571C44.074 74.2021 43.519 75.3157 43.8662 76.3442C44.1411 77.1642 44.9071 77.683 45.7271 77.683C45.9334 77.683 46.1452 77.6494 46.3511 77.5804L65.831 71.0393C66.8581 70.6928 67.4112 69.5781 67.0662 68.5518Z" fill="white" fill-opacity="0.8"/>
<path d="M67.0662 58.7385C66.7219 57.7119 65.6094 57.1613 64.5809 57.5023L45.1003 64.0438C44.074 64.3888 43.519 65.5024 43.8662 66.5309C44.1411 67.3513 44.9071 67.8693 45.7271 67.8693C45.9334 67.8693 46.1452 67.8361 46.3511 67.7667L65.831 61.2256C66.8581 60.8795 67.4112 59.7648 67.0662 58.7385Z" fill="white" fill-opacity="0.8"/>
<path d="M61.4706 99.343L47.7326 103.267C46.8903 103.509 46.3098 104.28 46.3098 105.155V112.024C46.3098 113.109 47.1886 113.987 48.2722 113.987H62.0102C63.0931 113.987 63.9727 113.109 63.9727 112.024V101.231C63.9727 100.615 63.6839 100.035 63.1917 99.6607C62.701 99.293 62.0628 99.1784 61.4706 99.343Z" fill="white" fill-opacity="0.8"/>
<path d="M48.2724 61.3264C48.533 61.3264 48.7985 61.2746 49.046 61.1672L62.7836 55.2814C63.5062 54.9726 63.9731 54.2628 63.9731 53.4782V39.0816C63.9731 37.9968 63.0933 37.1191 62.0107 37.1191H48.2727C47.1891 37.1191 46.3103 37.9968 46.3103 39.0816V59.3636C46.3103 60.023 46.6418 60.6375 47.192 61.0026C47.5173 61.2183 47.8937 61.3264 48.2724 61.3264Z" fill="white" fill-opacity="0.8"/>
<path d="M40.4221 36.4661H69.2052C70.2881 36.4661 71.1676 35.5884 71.1676 34.5037V18.8032C71.1676 17.7174 70.2877 16.8408 69.2052 16.8408H40.4221C39.3385 16.8408 38.4597 17.7178 38.4597 18.8032V34.5033C38.4594 35.5884 39.3363 36.4661 40.4221 36.4661Z" fill="white" fill-opacity="0.8"/>
<path d="M122.998 77.2239C122.655 76.1976 121.543 75.6466 120.514 75.9876L101.032 82.5291C100.007 82.8741 99.4513 83.9873 99.7981 85.0151C100.074 85.8351 100.839 86.3547 101.659 86.3547C101.866 86.3547 102.077 86.3218 102.284 86.2528L121.764 79.7109C122.791 79.3655 123.343 78.2502 122.998 77.2239Z" fill="white" fill-opacity="0.8"/>
<path d="M122.998 69.3741C122.655 68.3478 121.543 67.7947 120.514 68.1379L101.032 74.679C100.007 75.024 99.4513 76.1376 99.7981 77.1661C100.074 77.9865 100.839 78.5049 101.659 78.5049C101.866 78.5049 102.077 78.4713 102.284 78.4023L121.764 71.8608C122.791 71.5158 123.343 70.4004 122.998 69.3741Z" fill="white" fill-opacity="0.8"/>
<path d="M122.998 61.5239C122.655 60.4976 121.543 59.9485 120.514 60.2877L101.032 66.8288C100.007 67.1739 99.4513 68.2878 99.7981 69.3159C100.074 70.1363 100.839 70.6544 101.659 70.6544C101.866 70.6544 102.077 70.6211 102.284 70.5521L121.764 64.0106C122.791 63.6656 123.343 62.5502 122.998 61.5239Z" fill="white" fill-opacity="0.8"/>
<path d="M122.998 51.711C122.655 50.6847 121.543 50.1316 120.514 50.4748L101.032 57.0163C100.007 57.3613 99.4513 58.4749 99.7981 59.503C100.074 60.3234 100.839 60.8418 101.659 60.8418C101.866 60.8418 102.077 60.8082 102.284 60.7392L121.764 54.1977C122.791 53.8527 123.343 52.7373 122.998 51.711Z" fill="white" fill-opacity="0.8"/>
<path d="M122.998 41.8977C122.655 40.8711 121.543 40.3205 120.514 40.6615L101.032 47.203C100.007 47.548 99.4513 48.6616 99.7981 49.6901C100.074 50.5101 100.839 51.0285 101.659 51.0285C101.866 51.0285 102.077 50.9949 102.284 50.9259L121.764 44.3844C122.791 44.0394 123.343 42.924 122.998 41.8977Z" fill="white" fill-opacity="0.8"/>
<path d="M117.404 82.5015L103.666 86.4256C102.822 86.667 102.242 87.4395 102.242 88.3158V95.1844C102.242 96.2691 103.122 97.1468 104.205 97.1468H117.942C119.027 97.1468 119.905 96.2691 119.905 95.1844V84.3902C119.905 83.775 119.618 83.1945 119.125 82.8214C118.634 82.4548 117.994 82.3369 117.404 82.5015Z" fill="white" fill-opacity="0.8"/>
<path d="M104.205 44.4851C104.465 44.4851 104.732 44.4333 104.979 44.3263L118.717 38.4401C119.44 38.1316 119.905 37.4219 119.905 36.6369V22.2417C119.905 21.1555 119.027 20.2793 117.942 20.2793H104.205C103.122 20.2793 102.242 21.1559 102.242 22.2417V42.5223C102.242 43.1817 102.573 43.7962 103.124 44.1613C103.449 44.377 103.827 44.4851 104.205 44.4851Z" fill="white" fill-opacity="0.8"/>
<path d="M96.3541 19.6253H125.137C126.22 19.6253 127.1 18.7479 127.1 17.6628V1.96242C127.1 0.876607 126.22 0 125.137 0H96.3541C95.2713 0 94.3914 0.876972 94.3914 1.96242V17.6625C94.3914 18.7479 95.2694 19.6253 96.3541 19.6253Z" fill="white" fill-opacity="0.8"/>
<path d="M122.14 136.39C128.257 132.502 132.006 125.85 132.006 118.506C132.006 106.78 122.47 97.2432 110.744 97.2432C99.0224 97.2432 89.4849 106.78 89.4849 118.506C89.4849 125.85 93.2337 132.504 99.3517 136.39L91.5448 149.906C91.1943 150.516 91.1943 151.259 91.5448 151.869L100.296 167.019C100.647 167.627 101.294 168.001 101.996 168.001H119.494C120.196 168.001 120.845 167.627 121.194 167.019L129.945 151.869C130.296 151.259 130.296 150.516 129.945 149.906L122.14 136.39ZM110.744 158.668C106.457 158.668 102.966 155.18 102.966 150.887C102.966 146.602 106.457 143.114 110.744 143.114C115.033 143.114 118.522 146.602 118.522 150.887C118.519 155.181 115.033 158.668 110.744 158.668ZM110.744 127.962C105.528 127.962 101.289 123.72 101.289 118.506C101.289 113.29 105.53 109.049 110.744 109.049C115.961 109.049 120.204 113.29 120.204 118.506C120.204 123.72 115.959 127.962 110.744 127.962Z" fill="white" fill-opacity="0.8"/>
<path d="M110.744 124.035C113.798 124.035 116.275 121.559 116.275 118.505C116.275 115.45 113.798 112.974 110.744 112.974C107.689 112.974 105.213 115.45 105.213 118.505C105.213 121.559 107.689 124.035 110.744 124.035Z" fill="white" fill-opacity="0.8"/>
</g>
<defs>
<clipPath id="clip0_376_17007">
<rect width="168" height="168" fill="white"/>
</clipPath>
</defs>
</svg>
