<svg width="168" height="168" viewBox="0 0 168 168" fill="none" xmlns="http://www.w3.org/2000/svg">
<path d="M152.927 123.063L119.764 89.9004C113.222 83.3584 103.452 82.084 95.5786 85.9639L65.3892 55.7744V38.1875L29.1392 11L11.0142 29.125L38.2017 65.375H55.7886L85.978 95.5645C82.1265 103.438 83.3726 113.208 89.9146 119.75L123.078 152.913C127.212 157.048 133.896 157.048 138.002 152.913L152.927 137.988C157.034 133.854 157.034 127.17 152.927 123.063ZM104.953 74.7207C112.967 74.7207 120.5 77.8359 126.165 83.5L131.659 88.9941C136.133 87.04 140.381 84.3213 144.063 80.6396C154.57 70.1328 158.138 55.3496 154.796 41.9258C154.173 39.377 150.973 38.499 149.104 40.3682L128.034 61.4385L108.804 58.2383L105.604 39.0088L126.674 17.9385C128.543 16.0693 127.637 12.8691 125.06 12.2178C111.636 8.9043 96.853 12.4727 86.3745 22.9512C78.3032 31.0225 74.5083 41.6709 74.7065 52.291L97.9575 75.542C100.251 75.0039 102.63 74.7207 104.953 74.7207ZM75.5278 97.9434L59.4702 81.8857L16.3101 125.074C9.22998 132.154 9.22998 143.624 16.3101 150.704C23.3901 157.784 34.8599 157.784 41.9399 150.704L76.9438 115.7C74.7915 110.064 74.1401 103.919 75.5278 97.9434ZM29.1392 144.672C25.4009 144.672 22.3423 141.613 22.3423 137.875C22.3423 134.108 25.3726 131.078 29.1392 131.078C32.9058 131.078 35.936 134.108 35.936 137.875C35.936 141.613 32.9058 144.672 29.1392 144.672Z" fill="white" fill-opacity="0.8"/>
</svg>
