<svg width="168" height="168" viewBox="0 0 168 168" fill="none" xmlns="http://www.w3.org/2000/svg">
<path d="M135.005 103.094C123.13 103.094 113.504 112.72 113.504 124.595C113.504 136.469 123.13 146.095 135.005 146.095C146.879 146.095 156.505 136.469 156.505 124.595C156.505 112.72 146.879 103.094 135.005 103.094ZM135.005 130.458C131.772 130.458 129.141 127.827 129.141 124.595C129.141 121.362 131.772 118.731 135.005 118.731C138.237 118.731 140.868 121.362 140.868 124.595C140.868 127.827 138.237 130.458 135.005 130.458ZM154.551 60.0923H138.914V50.2704C138.914 46.8205 140.062 43.4879 142.127 40.7807C143.207 39.3636 142.994 37.3455 141.804 36.0188L136.519 30.1134C134.892 28.2932 132.043 28.4227 130.485 30.304C125.862 35.8795 123.277 42.943 123.277 50.2704V60.0923H98.2749L84.5706 28.1197C83.6704 26.0058 82.168 24.2036 80.2508 22.9376C78.3335 21.6716 76.0861 20.9977 73.7885 21H41.1831C34.7157 21 29.4554 26.2604 29.4554 32.7277V68.5265C27.3468 66.8822 24.3343 66.9481 22.3968 68.8856L14.7958 76.4867C12.697 78.5854 12.697 81.9889 14.7958 84.0877L16.0321 85.324C14.8129 87.5864 13.8429 89.9222 13.1221 92.341H11.3752C8.40662 92.341 6 94.7477 6 97.7162V108.467C6 111.435 8.40662 113.842 11.3752 113.842H13.1197C13.8429 116.263 14.8104 118.596 16.0296 120.861L14.7933 122.098C12.6946 124.196 12.6946 127.6 14.7933 129.699L22.3943 137.3C24.4931 139.398 27.8966 139.398 29.9953 137.3L31.2316 136.063C33.4941 137.283 35.8299 138.253 38.2487 138.973V140.72C38.2487 143.689 40.6553 146.095 43.6239 146.095H54.3743C57.3429 146.095 59.7495 143.689 59.7495 140.72V138.976C62.1683 138.255 64.5041 137.285 66.7665 136.066L68.0028 137.302C70.1016 139.401 73.5051 139.401 75.6039 137.302L83.2049 129.701C85.3036 127.602 85.3036 124.199 83.2049 122.1L81.9686 120.864C83.1878 118.601 84.1577 116.266 84.8785 113.847H86.6279C89.5965 113.847 92.0031 111.44 92.0031 108.471V107.006H111.681C117.034 99.9225 125.442 95.2778 135.005 95.2778C139.559 95.2778 143.817 96.4042 147.661 98.2586L160.077 85.8419C161.543 84.376 162.367 82.3871 162.367 80.3128V67.9108C162.369 63.5935 158.868 60.0923 154.551 60.0923ZM49.0015 122.64C38.2072 122.64 29.4554 113.888 29.4554 103.094C29.4554 92.2995 38.2072 83.5477 49.0015 83.5477C59.7959 83.5477 68.5477 92.2995 68.5477 103.094C68.5477 113.888 59.7959 122.64 49.0015 122.64ZM54.3767 60.0923H45.0923V36.6369H71.2084L81.2625 60.0923H54.3767Z" fill="white" fill-opacity="0.8"/>
</svg>
